STARTFONT 2.1
COMMENT
COMMENT Converted from OpenType font "deltarune.ttf" by "otf2bdf 3.0".
COMMENT
FONT -FreeType-Deltarune-Medium-R-Normal--17-120-100-100-P-66-ISO10646-1
SIZE 12 100 100
FONTBOUNDINGBOX 11 17 0 -5
STARTPROPERTIES 19
FOUNDRY "FreeType"
FAMILY_NAME "Deltarune"
WEIGHT_NAME "Medium"
SLANT "R"
SETWIDTH_NAME "Normal"
ADD_STYLE_NAME ""
PIXEL_SIZE 17
POINT_SIZE 120
RESOLUTION_X 100
RESOLUTION_Y 100
SPACING "P"
AVERAGE_WIDTH 66
CHARSET_REGISTRY "ISO10646"
CHARSET_ENCODING "1"
FONT_ASCENT 12
FONT_DESCENT 4
COPYRIGHT "Copyright Retro Gaming 2018"
_OTF_FONTFILE "deltarune.ttf"
_OTF_PSNAME "Deltarune"
ENDPROPERTIES
CHARS 99
STARTCHAR 0020
ENCODING 32
SWIDTH 240 0
DWIDTH 4 0
BBX 0 0 0 0
BITMAP
ENDCHAR
STARTCHAR 0021
ENCODING 33
SWIDTH 300 0
DWIDTH 5 0
BBX 3 12 0 0
BITMAP
E0
E0
E0
E0
E0
E0
E0
E0
E0
00
E0
E0
ENDCHAR
STARTCHAR 0022
ENCODING 34
SWIDTH 300 0
DWIDTH 5 0
BBX 3 3 0 8
BITMAP
A0
A0
A0
ENDCHAR
STARTCHAR 0023
ENCODING 35
SWIDTH 300 0
DWIDTH 5 0
BBX 3 4 0 0
BITMAP
A0
E0
60
40
ENDCHAR
STARTCHAR 0024
ENCODING 36
SWIDTH 300 0
DWIDTH 5 0
BBX 3 4 0 0
BITMAP
A0
E0
60
40
ENDCHAR
STARTCHAR 0025
ENCODING 37
SWIDTH 300 0
DWIDTH 5 0
BBX 3 4 0 0
BITMAP
A0
E0
60
40
ENDCHAR
STARTCHAR 0026
ENCODING 38
SWIDTH 300 0
DWIDTH 5 0
BBX 3 4 0 0
BITMAP
A0
E0
60
40
ENDCHAR
STARTCHAR 0027
ENCODING 39
SWIDTH 180 0
DWIDTH 3 0
BBX 1 3 0 8
BITMAP
80
80
80
ENDCHAR
STARTCHAR 0028
ENCODING 40
SWIDTH 360 0
DWIDTH 6 0
BBX 4 12 0 0
BITMAP
30
30
C0
C0
C0
C0
C0
C0
C0
C0
30
30
ENDCHAR
STARTCHAR 0029
ENCODING 41
SWIDTH 360 0
DWIDTH 6 0
BBX 4 12 0 0
BITMAP
C0
C0
30
30
30
30
30
30
30
30
C0
C0
ENDCHAR
STARTCHAR 002A
ENCODING 42
SWIDTH 360 0
DWIDTH 6 0
BBX 4 3 0 9
BITMAP
F0
60
F0
ENDCHAR
STARTCHAR 002B
ENCODING 43
SWIDTH 600 0
DWIDTH 10 0
BBX 8 9 0 0
BITMAP
38
38
38
FF
FF
FF
38
38
38
ENDCHAR
STARTCHAR 002C
ENCODING 44
SWIDTH 240 0
DWIDTH 4 0
BBX 2 3 0 -1
BITMAP
C0
C0
40
ENDCHAR
STARTCHAR 002D
ENCODING 45
SWIDTH 600 0
DWIDTH 10 0
BBX 8 3 0 3
BITMAP
FF
FF
FF
ENDCHAR
STARTCHAR 002E
ENCODING 46
SWIDTH 240 0
DWIDTH 4 0
BBX 2 2 0 0
BITMAP
C0
C0
ENDCHAR
STARTCHAR 002F
ENCODING 47
SWIDTH 660 0
DWIDTH 11 0
BBX 9 12 0 0
BITMAP
0180
0180
0000
0000
0800
0800
1000
1000
4000
4000
8000
8000
ENDCHAR
STARTCHAR 0030
ENCODING 48
SWIDTH 540 0
DWIDTH 9 0
BBX 7 9 0 0
BITMAP
FE
FE
E6
E6
E6
E6
E6
FE
FE
ENDCHAR
STARTCHAR 0031
ENCODING 49
SWIDTH 480 0
DWIDTH 8 0
BBX 6 9 0 0
BITMAP
F8
F8
38
38
38
38
38
FC
FC
ENDCHAR
STARTCHAR 0032
ENCODING 50
SWIDTH 480 0
DWIDTH 8 0
BBX 6 9 0 0
BITMAP
FC
FC
0C
0C
FC
FC
C0
FC
FC
ENDCHAR
STARTCHAR 0033
ENCODING 51
SWIDTH 480 0
DWIDTH 8 0
BBX 6 9 0 0
BITMAP
FC
FC
0C
0C
FC
FC
0C
FC
FC
ENDCHAR
STARTCHAR 0034
ENCODING 52
SWIDTH 600 0
DWIDTH 10 0
BBX 8 9 0 0
BITMAP
E0
E0
E0
FC
FF
FF
1C
1C
1C
ENDCHAR
STARTCHAR 0035
ENCODING 53
SWIDTH 480 0
DWIDTH 8 0
BBX 6 9 0 0
BITMAP
FC
FC
C0
C0
FC
FC
0C
FC
FC
ENDCHAR
STARTCHAR 0036
ENCODING 54
SWIDTH 480 0
DWIDTH 8 0
BBX 6 9 0 0
BITMAP
FC
FC
C0
C0
FC
FC
CC
FC
FC
ENDCHAR
STARTCHAR 0037
ENCODING 55
SWIDTH 540 0
DWIDTH 9 0
BBX 7 9 0 0
BITMAP
FE
FE
0E
0E
0E
0E
0E
0E
0E
ENDCHAR
STARTCHAR 0038
ENCODING 56
SWIDTH 540 0
DWIDTH 9 0
BBX 7 9 0 0
BITMAP
FE
FE
E6
E6
FE
E6
E6
FE
FE
ENDCHAR
STARTCHAR 0039
ENCODING 57
SWIDTH 480 0
DWIDTH 8 0
BBX 6 9 0 0
BITMAP
FC
FC
CC
CC
FC
FC
0C
FC
FC
ENDCHAR
STARTCHAR 003A
ENCODING 58
SWIDTH 300 0
DWIDTH 5 0
BBX 3 9 0 0
BITMAP
E0
E0
E0
00
00
00
E0
E0
E0
ENDCHAR
STARTCHAR 003B
ENCODING 59
SWIDTH 300 0
DWIDTH 5 0
BBX 3 11 0 -2
BITMAP
E0
E0
E0
00
00
00
E0
E0
E0
60
60
ENDCHAR
STARTCHAR 003C
ENCODING 60
SWIDTH 300 0
DWIDTH 5 0
BBX 3 7 0 4
BITMAP
20
00
40
80
00
40
20
ENDCHAR
STARTCHAR 003D
ENCODING 61
SWIDTH 480 0
DWIDTH 8 0
BBX 6 6 0 1
BITMAP
FC
FC
00
00
FC
FC
ENDCHAR
STARTCHAR 003E
ENCODING 62
SWIDTH 300 0
DWIDTH 5 0
BBX 3 7 0 4
BITMAP
80
00
40
20
00
40
80
ENDCHAR
STARTCHAR 003F
ENCODING 63
SWIDTH 540 0
DWIDTH 9 0
BBX 7 12 0 0
BITMAP
F0
F0
F0
0E
0E
0E
70
70
70
00
70
70
ENDCHAR
STARTCHAR 0040
ENCODING 64
SWIDTH 300 0
DWIDTH 5 0
BBX 3 4 0 0
BITMAP
A0
E0
60
40
ENDCHAR
STARTCHAR 0041
ENCODING 65
SWIDTH 660 0
DWIDTH 11 0
BBX 9 9 0 0
BITMAP
FF80
FF80
EB80
E380
F780
F780
FF80
F780
F780
ENDCHAR
STARTCHAR 0042
ENCODING 66
SWIDTH 600 0
DWIDTH 10 0
BBX 8 12 0 0
BITMAP
E0
E0
E0
FF
FF
FF
EB
E3
E7
FF
FF
FF
ENDCHAR
STARTCHAR 0043
ENCODING 67
SWIDTH 600 0
DWIDTH 10 0
BBX 8 9 0 0
BITMAP
FF
FF
FF
E0
E0
E0
FF
FF
FF
ENDCHAR
STARTCHAR 0044
ENCODING 68
SWIDTH 600 0
DWIDTH 10 0
BBX 8 12 0 0
BITMAP
07
07
07
FF
FF
FF
D7
C7
E7
FF
FF
FF
ENDCHAR
STARTCHAR 0045
ENCODING 69
SWIDTH 660 0
DWIDTH 11 0
BBX 9 9 0 0
BITMAP
FF80
FF80
FF80
FF80
E000
E000
FF80
FF80
FF80
ENDCHAR
STARTCHAR 0046
ENCODING 70
SWIDTH 600 0
DWIDTH 10 0
BBX 8 12 0 0
BITMAP
3F
3F
3F
38
FE
FE
FE
38
38
38
38
38
ENDCHAR
STARTCHAR 0047
ENCODING 71
SWIDTH 600 0
DWIDTH 10 0
BBX 8 14 0 -5
BITMAP
FF
FF
FF
D7
C7
E7
FF
FF
FF
07
07
FF
FF
FF
ENDCHAR
STARTCHAR 0048
ENCODING 72
SWIDTH 540 0
DWIDTH 9 0
BBX 7 12 0 0
BITMAP
E0
E0
E0
FE
FE
FE
FE
E6
E6
E6
E6
E6
ENDCHAR
STARTCHAR 0049
ENCODING 73
SWIDTH 300 0
DWIDTH 5 0
BBX 3 9 0 0
BITMAP
E0
E0
E0
E0
E0
E0
E0
E0
E0
ENDCHAR
STARTCHAR 004A
ENCODING 74
SWIDTH 540 0
DWIDTH 9 0
BBX 7 14 0 -5
BITMAP
0E
0E
0E
0E
0E
0E
0E
0E
0E
0E
0E
FE
FE
FE
ENDCHAR
STARTCHAR 004B
ENCODING 75
SWIDTH 600 0
DWIDTH 10 0
BBX 8 12 0 0
BITMAP
E0
E0
E0
E7
E7
E7
F8
F8
F8
E7
E7
E7
ENDCHAR
STARTCHAR 004C
ENCODING 76
SWIDTH 300 0
DWIDTH 5 0
BBX 3 12 0 0
BITMAP
E0
E0
E0
E0
E0
E0
E0
E0
E0
E0
E0
E0
ENDCHAR
STARTCHAR 004D
ENCODING 77
SWIDTH 780 0
DWIDTH 13 0
BBX 11 9 0 0
BITMAP
FFE0
FFE0
FFE0
FFE0
E660
E660
E660
E660
E660
ENDCHAR
STARTCHAR 004E
ENCODING 78
SWIDTH 540 0
DWIDTH 9 0
BBX 7 9 0 0
BITMAP
FE
FE
FE
FE
E6
E6
E6
E6
E6
ENDCHAR
STARTCHAR 004F
ENCODING 79
SWIDTH 660 0
DWIDTH 11 0
BBX 9 9 0 0
BITMAP
FF80
FF80
FF80
EB80
E380
E780
FF80
FF80
FF80
ENDCHAR
STARTCHAR 0050
ENCODING 80
SWIDTH 600 0
DWIDTH 10 0
BBX 8 13 0 -4
BITMAP
FF
FF
FF
EB
E3
E7
FF
FF
FF
E0
E0
E0
E0
ENDCHAR
STARTCHAR 0051
ENCODING 81
SWIDTH 600 0
DWIDTH 10 0
BBX 8 13 0 -4
BITMAP
FF
FF
FF
D7
C7
E7
FF
FF
FF
07
07
07
07
ENDCHAR
STARTCHAR 0052
ENCODING 82
SWIDTH 600 0
DWIDTH 10 0
BBX 7 9 1 0
BITMAP
FE
FE
E6
E6
E0
E0
E0
E0
E0
ENDCHAR
STARTCHAR 0053
ENCODING 83
SWIDTH 540 0
DWIDTH 9 0
BBX 7 9 0 0
BITMAP
FE
FE
F8
F8
1E
1E
FE
FE
FE
ENDCHAR
STARTCHAR 0054
ENCODING 84
SWIDTH 540 0
DWIDTH 9 0
BBX 7 12 0 0
BITMAP
38
38
38
FE
FE
FE
38
38
38
38
38
38
ENDCHAR
STARTCHAR 0055
ENCODING 85
SWIDTH 540 0
DWIDTH 9 0
BBX 7 9 0 0
BITMAP
CE
CE
CE
CE
FE
FE
FE
FE
FE
ENDCHAR
STARTCHAR 0056
ENCODING 86
SWIDTH 540 0
DWIDTH 9 0
BBX 7 9 0 0
BITMAP
CE
CE
CE
CE
CE
CE
FE
FE
FE
ENDCHAR
STARTCHAR 0057
ENCODING 87
SWIDTH 780 0
DWIDTH 13 0
BBX 11 9 0 0
BITMAP
E660
E660
E660
E660
E660
FFE0
FFE0
FFE0
FFE0
ENDCHAR
STARTCHAR 0058
ENCODING 88
SWIDTH 480 0
DWIDTH 8 0
BBX 6 9 0 0
BITMAP
CC
CC
CC
30
30
30
CC
CC
CC
ENDCHAR
STARTCHAR 0059
ENCODING 89
SWIDTH 600 0
DWIDTH 10 0
BBX 8 14 0 -5
BITMAP
C7
C7
C7
C7
C7
C7
FF
FF
FF
07
07
FF
FF
FF
ENDCHAR
STARTCHAR 005A
ENCODING 90
SWIDTH 540 0
DWIDTH 9 0
BBX 7 9 0 0
BITMAP
FE
FE
3E
3E
F0
F0
FE
FE
FE
ENDCHAR
STARTCHAR 005B
ENCODING 91
SWIDTH 360 0
DWIDTH 6 0
BBX 4 12 0 0
BITMAP
F0
F0
C0
C0
C0
C0
C0
C0
C0
C0
F0
F0
ENDCHAR
STARTCHAR 005C
ENCODING 92
SWIDTH 660 0
DWIDTH 11 0
BBX 9 12 0 0
BITMAP
8000
8000
4000
4000
1000
1000
0800
0800
0000
0000
0180
0180
ENDCHAR
STARTCHAR 005D
ENCODING 93
SWIDTH 360 0
DWIDTH 6 0
BBX 4 12 0 0
BITMAP
F0
F0
30
30
30
30
30
30
30
30
F0
F0
ENDCHAR
STARTCHAR 005E
ENCODING 94
SWIDTH 480 0
DWIDTH 8 0
BBX 6 4 0 4
BITMAP
10
48
00
84
ENDCHAR
STARTCHAR 005F
ENCODING 95
SWIDTH 480 0
DWIDTH 8 0
BBX 6 2 0 0
BITMAP
FC
FC
ENDCHAR
STARTCHAR 0060
ENCODING 96
SWIDTH 240 0
DWIDTH 4 0
BBX 2 4 0 8
BITMAP
80
C0
40
40
ENDCHAR
STARTCHAR 0061
ENCODING 97
SWIDTH 660 0
DWIDTH 11 0
BBX 9 9 0 0
BITMAP
FF80
FF80
FF80
E380
E380
FF80
FF80
E380
E380
ENDCHAR
STARTCHAR 0062
ENCODING 98
SWIDTH 600 0
DWIDTH 10 0
BBX 8 12 0 0
BITMAP
E0
E0
E0
FF
FF
FF
FF
FF
FF
FF
FF
FF
ENDCHAR
STARTCHAR 0063
ENCODING 99
SWIDTH 600 0
DWIDTH 10 0
BBX 8 9 0 0
BITMAP
FF
FF
FF
E0
E0
E0
FF
FF
FF
ENDCHAR
STARTCHAR 0064
ENCODING 100
SWIDTH 660 0
DWIDTH 11 0
BBX 9 12 0 0
BITMAP
0380
0380
0380
FF80
FF80
FF80
FF80
FF80
FF80
FF80
FF80
FF80
ENDCHAR
STARTCHAR 0065
ENCODING 101
SWIDTH 600 0
DWIDTH 10 0
BBX 8 9 0 0
BITMAP
FF
FF
FF
FF
E0
E0
FF
FF
FF
ENDCHAR
STARTCHAR 0066
ENCODING 102
SWIDTH 600 0
DWIDTH 10 0
BBX 8 12 0 0
BITMAP
3F
3F
3F
38
FE
FE
FE
38
38
38
38
38
ENDCHAR
STARTCHAR 0067
ENCODING 103
SWIDTH 660 0
DWIDTH 11 0
BBX 9 14 0 -5
BITMAP
FF80
FF80
FF80
FF80
FF80
FF80
FF80
FF80
FF80
0380
0380
FF80
FF80
FF80
ENDCHAR
STARTCHAR 0068
ENCODING 104
SWIDTH 540 0
DWIDTH 9 0
BBX 7 12 0 0
BITMAP
E0
E0
E0
FE
FE
FE
FE
E6
E6
E6
E6
E6
ENDCHAR
STARTCHAR 0069
ENCODING 105
SWIDTH 300 0
DWIDTH 5 0
BBX 3 9 0 0
BITMAP
E0
E0
E0
E0
E0
E0
E0
E0
E0
ENDCHAR
STARTCHAR 006A
ENCODING 106
SWIDTH 540 0
DWIDTH 9 0
BBX 7 14 0 -5
BITMAP
0E
0E
0E
0E
0E
0E
0E
0E
0E
0E
0E
FE
FE
FE
ENDCHAR
STARTCHAR 006B
ENCODING 107
SWIDTH 600 0
DWIDTH 10 0
BBX 8 12 0 0
BITMAP
E0
E0
E0
E7
E7
E7
F8
F8
F8
E7
E7
E7
ENDCHAR
STARTCHAR 006C
ENCODING 108
SWIDTH 300 0
DWIDTH 5 0
BBX 3 12 0 0
BITMAP
E0
E0
E0
E0
E0
E0
E0
E0
E0
E0
E0
E0
ENDCHAR
STARTCHAR 006D
ENCODING 109
SWIDTH 780 0
DWIDTH 13 0
BBX 11 9 0 0
BITMAP
FFE0
FFE0
FFE0
FFE0
E660
E660
E660
E660
E660
ENDCHAR
STARTCHAR 006E
ENCODING 110
SWIDTH 540 0
DWIDTH 9 0
BBX 7 9 0 0
BITMAP
FE
FE
FE
FE
E6
E6
E6
E6
E6
ENDCHAR
STARTCHAR 006F
ENCODING 111
SWIDTH 660 0
DWIDTH 11 0
BBX 9 9 0 0
BITMAP
FF80
FF80
FF80
E380
E380
E380
FF80
FF80
FF80
ENDCHAR
STARTCHAR 0070
ENCODING 112
SWIDTH 600 0
DWIDTH 10 0
BBX 8 13 0 -4
BITMAP
FF
FF
FF
FF
FF
FF
FF
FF
FF
E0
E0
E0
E0
ENDCHAR
STARTCHAR 0071
ENCODING 113
SWIDTH 660 0
DWIDTH 11 0
BBX 9 13 0 -4
BITMAP
FF80
FF80
FF80
FF80
FF80
FF80
FF80
FF80
FF80
0380
0380
0380
0380
ENDCHAR
STARTCHAR 0072
ENCODING 114
SWIDTH 600 0
DWIDTH 10 0
BBX 7 9 1 0
BITMAP
FE
FE
E6
E6
E0
E0
E0
E0
E0
ENDCHAR
STARTCHAR 0073
ENCODING 115
SWIDTH 540 0
DWIDTH 9 0
BBX 7 9 0 0
BITMAP
FE
FE
F8
F8
1E
1E
FE
FE
FE
ENDCHAR
STARTCHAR 0074
ENCODING 116
SWIDTH 540 0
DWIDTH 9 0
BBX 7 12 0 0
BITMAP
38
38
38
FE
FE
FE
38
38
38
38
38
38
ENDCHAR
STARTCHAR 0075
ENCODING 117
SWIDTH 540 0
DWIDTH 9 0
BBX 7 9 0 0
BITMAP
CE
CE
CE
CE
FE
FE
FE
FE
FE
ENDCHAR
STARTCHAR 0076
ENCODING 118
SWIDTH 540 0
DWIDTH 9 0
BBX 7 9 0 0
BITMAP
CE
CE
CE
CE
CE
CE
FE
FE
FE
ENDCHAR
STARTCHAR 0077
ENCODING 119
SWIDTH 780 0
DWIDTH 13 0
BBX 11 9 0 0
BITMAP
E660
E660
E660
E660
E660
FFE0
FFE0
FFE0
FFE0
ENDCHAR
STARTCHAR 0078
ENCODING 120
SWIDTH 480 0
DWIDTH 8 0
BBX 6 9 0 0
BITMAP
CC
CC
CC
30
30
30
CC
CC
CC
ENDCHAR
STARTCHAR 0079
ENCODING 121
SWIDTH 600 0
DWIDTH 10 0
BBX 8 14 0 -5
BITMAP
C7
C7
C7
C7
C7
C7
FF
FF
FF
07
07
FF
FF
FF
ENDCHAR
STARTCHAR 007A
ENCODING 122
SWIDTH 540 0
DWIDTH 9 0
BBX 7 9 0 0
BITMAP
FE
FE
3E
3E
F0
F0
FE
FE
FE
ENDCHAR
STARTCHAR 007B
ENCODING 123
SWIDTH 420 0
DWIDTH 7 0
BBX 5 12 0 0
BITMAP
18
18
60
60
80
80
80
60
60
60
18
18
ENDCHAR
STARTCHAR 007C
ENCODING 124
SWIDTH 240 0
DWIDTH 4 0
BBX 2 12 0 0
BITMAP
C0
C0
C0
C0
C0
C0
C0
C0
C0
C0
C0
C0
ENDCHAR
STARTCHAR 007D
ENCODING 125
SWIDTH 420 0
DWIDTH 7 0
BBX 5 12 0 0
BITMAP
C0
C0
30
30
08
08
08
30
30
30
C0
C0
ENDCHAR
STARTCHAR 007E
ENCODING 126
SWIDTH 660 0
DWIDTH 11 0
BBX 9 4 0 3
BITMAP
3180
3180
CE00
CE00
ENDCHAR
STARTCHAR 2018
ENCODING 8216
SWIDTH 240 0
DWIDTH 4 0
BBX 2 3 0 8
BITMAP
80
C0
C0
ENDCHAR
STARTCHAR 2019
ENCODING 8217
SWIDTH 240 0
DWIDTH 4 0
BBX 2 3 0 8
BITMAP
C0
C0
40
ENDCHAR
STARTCHAR 201C
ENCODING 8220
SWIDTH 420 0
DWIDTH 7 0
BBX 5 3 0 8
BITMAP
90
D8
D8
ENDCHAR
STARTCHAR 201D
ENCODING 8221
SWIDTH 420 0
DWIDTH 7 0
BBX 5 3 0 8
BITMAP
D8
D8
48
ENDCHAR
ENDFONT
